<?xml version="1.0" encoding="utf-8" ?><svg xmlns="http://www.w3.org/2000/svg" xmlns:xlink="http://www.w3.org/1999/xlink" width="1024" height="1024" viewBox="0 0 1024 1024"><path transform="scale(2 2)" d="M371.649 429.998C365.658 429.757 358.557 429.996 352.434 429.997L158.544 430.004C149.683 430.01 139.58 430.553 130.986 428.968C101.174 423.468 78.1806 397.953 76.8019 367.55C76.5424 361.827 76.7206 355.984 76.7308 350.288L76.7845 139.253C76.9696 101.383 106.34 74.4222 142.917 72.6164C146.032 72.3805 152.668 72.5976 156.044 72.6016L368.275 72.6254C400.258 72.5854 429.032 97.061 434.945 128.356C436.366 135.878 436.185 142.943 436.186 150.529L436.188 348.608C436.187 355.756 436.281 363.106 435.382 370.195C431.905 397.608 411.583 420.273 385.083 427.598C380.58 428.842 376.181 429.124 371.649 429.998ZM253.831 187.935C237.025 188.651 237.355 201.474 237.216 214.211C237.04 230.296 252.885 229.684 263.745 229.683L324.934 229.676C331.428 229.678 338.634 229.836 345.063 229.669C365.056 225.421 367.315 200.892 352.278 191.005C345.983 186.866 337.32 187.923 329.874 187.923L270.987 187.925C265.818 187.922 258.783 187.686 253.831 187.935ZM166.661 187.935C147.456 190.972 146.441 225.569 164.761 229.604C168.889 230.32 193.182 229.996 197.681 229.669C209.691 227.927 211.492 219.226 211.551 208.742C211.662 188.888 202.143 187.921 185.132 187.92L166.661 187.935ZM169.047 271.233C158.908 270.715 152.172 276.532 152.321 287.363C152.515 301.409 153.342 312.127 170.627 312.338C178.86 312.438 187.048 312.389 195.245 312.377C206.385 311.997 211.598 305.025 211.563 294.271C211.732 270.927 204.205 271.159 184.315 271.268C180.984 271.286 171.766 270.67 169.047 271.233ZM251.973 271.233C239.17 273.198 237.08 280.597 237.168 292.027C237.325 312.337 247.424 312.391 264.387 312.387L327.604 312.372C333.186 312.371 340.963 312.645 346.318 312.377C370.278 302.238 363.32 273.098 343.193 271.442C338.335 271.042 333.243 271.227 328.336 271.227L305.743 271.231C288.227 271.232 269.363 270.863 251.973 271.233Z"/></svg>